<?xml version="1.0" encoding="UTF-8" standalone="no"?>
<!-- Created with Inkscape (http://www.inkscape.org/) -->

<svg
   width="181.86792mm"
   height="109.92668mm"
   viewBox="0 0 181.86792 109.92668"
   version="1.1"
   id="svg5"
   inkscape:version="1.1 (c68e22c387, 2021-05-23)"
   sodipodi:docname="drawing.svg"
   xmlns:inkscape="http://www.inkscape.org/namespaces/inkscape"
   xmlns:sodipodi="http://sodipodi.sourceforge.net/DTD/sodipodi-0.dtd"
   xmlns="http://www.w3.org/2000/svg"
   xmlns:svg="http://www.w3.org/2000/svg">
 
  <defs
     id="defs2" />
     <ref id="bg-color" parm="color" default="white"/>
  <g
     inkscape:label="Layer 1"
     inkscape:groupmode="layer"
     id="layer1"
     transform="translate(-15.264957,-63.729568)">
    <g
       id="g39">
      <path
         style="fill:url(#bg-color);stroke-width:0.3"
         d="M 15.264957,118.69291 V 63.729568 h 90.933963 90.93396 v 54.963342 54.96334 H 106.19892 15.264957 Z m 90.427163,22.25477 c 0.12074,-2.40535 0.15753,-4.53826 0.0817,-4.73979 -0.3255,-0.86575 -0.68053,-0.23601 -0.82632,1.46569 -0.0863,1.00766 -0.18752,2.02998 -0.22487,2.27182 -0.0374,0.24184 -0.0473,1.60493 -0.0221,3.02909 0.034,1.92523 0.13891,2.55824 0.40892,2.46797 0.25527,-0.0853 0.42837,-1.42066 0.58267,-4.49478 z m 12.19434,2.41468 c 0.0583,-0.58934 -4.00372,-9.27972 -4.33748,-9.27972 -0.61721,0 -0.73521,-0.32291 2.9285,8.01398 0.41368,0.94134 0.89475,1.66356 1.06905,1.60493 0.17431,-0.0586 0.32727,-0.21126 0.33993,-0.33919 z m -23.85204,-1.35348 c 0.34977,-0.47735 0.766091,-0.78675 0.925158,-0.68756 0.164303,0.10246 0.198265,0.0319 0.07864,-0.16342 -0.277119,-0.45242 0.951004,-2.44545 1.352592,-2.19502 0.175686,0.10956 0.226545,0.0565 0.117087,-0.12223 -0.265048,-0.43272 0.95691,-2.45898 1.339161,-2.22061 0.184044,0.11477 0.220807,0.0508 0.09181,-0.15984 -0.118339,-0.1932 -0.06682,-0.53162 0.114481,-0.75204 0.352708,-0.42881 -0.0595,-0.91797 -0.527588,-0.62607 -0.385877,0.24063 -4.690937,7.08945 -4.690937,7.4627 0,0.59592 0.550446,0.35001 1.199599,-0.53591 z m -16.161577,-7.24675 c 0.798941,-0.24085 1.87869,-0.63093 2.399445,-0.86685 0.848472,-0.38437 1.044637,-0.37735 1.888405,0.0676 1.643636,0.86683 1.892592,0.96784 2.03394,0.82522 0.377574,-0.38097 9.221413,-3.22775 9.42319,-3.03327 0.772671,0.74474 2.804839,0.16579 3.138224,-0.89405 0.115902,-0.36847 -0.862577,-3.6278 -2.649574,-8.82581 -2.311792,-6.7245 -2.953059,-8.29662 -3.483692,-8.54057 -0.943052,-0.43355 -2.114929,-0.0333 -2.648415,0.90465 -0.392507,0.69006 -1.103564,1.03132 -4.636825,2.22541 -4.56231,1.54186 -5.404016,2.03841 -5.926468,3.49622 -0.31609,0.88199 -0.571286,1.04381 -2.802323,1.77692 -3.287286,1.08018 -3.689046,1.50956 -3.462123,3.70016 l 0.176037,1.69937 -1.887493,0.63377 c -1.989597,0.66805 -2.747495,1.49969 -2.747495,3.0148 0,0.63513 -0.23834,0.76653 -2.468674,1.36102 -4.806804,1.28125 -7.618442,1.38282 -10.750161,0.38834 -3.860893,-1.22603 -6.304367,-4.24223 -6.304367,-7.78207 0,-1.57176 0.190319,-2.12146 1.917457,-5.53829 1.73032,-3.42312 1.917458,-3.96449 1.917458,-5.54706 0,-3.57596 -2.269262,-5.96534 -6.655073,-7.00735 -4.297551,-1.02103 -12.583021,1.10186 -21.780207,5.58048 -4.591805,2.23601 -7.136328,3.78883 -6.786668,4.14164 0.27154,0.27398 2.041139,-0.49841 2.460717,-1.07406 0.142443,-0.19542 0.21663,-0.19542 0.222561,0 0.005,0.16502 0.102185,0.14921 0.222342,-0.0362 0.333783,-0.515 5.30688,-3.07059 5.608837,-2.88229 0.148402,0.0926 0.269822,0.0386 0.269822,-0.11995 0,-0.4039 6.045478,-2.74699 6.444921,-2.4979 0.187626,0.117 0.246746,0.073 0.138761,-0.1033 -0.225978,-0.36893 1.137701,-0.76733 1.636977,-0.47824 0.192387,0.11139 0.249407,0.0911 0.126712,-0.0451 -0.296556,-0.32922 2.517402,-1.20741 5.669262,-1.76928 1.964934,-0.35028 3.006846,-0.38781 4.596178,-0.16559 2.25847,0.31579 4.81992,1.42725 4.694527,2.03704 -0.0439,0.21352 0.03514,0.31652 0.175663,0.22889 0.329111,-0.20523 1.29435,0.86309 1.93619,2.14297 0.656003,1.30811 0.466825,3.35228 -0.482496,5.21367 -0.394578,0.77367 -1.230747,2.39601 -1.858153,3.6052 -1.011334,1.94914 -1.140922,2.43214 -1.142366,4.25781 -0.0026,3.3642 1.260876,5.55189 4.264469,7.3835 2.393251,1.45942 4.776813,1.9606 8.081167,1.69921 1.517987,-0.12008 3.173973,-0.23578 3.67997,-0.2571 0.505993,-0.0213 0.859116,-0.1002 0.784713,-0.17528 -0.0744,-0.0751 0.684178,-0.36965 1.685736,-0.65462 1.787657,-0.50864 1.84385,-0.50697 3.067734,0.0908 1.033626,0.50487 1.400883,0.55473 2.148656,0.29171 0.496064,-0.17449 1.006488,-0.25205 1.134275,-0.17236 0.127787,0.0797 0.276186,0.0326 0.329782,-0.10473 0.0536,-0.13729 0.444409,-0.33531 0.868478,-0.44005 0.657757,-0.16246 0.812086,-0.0716 1.050496,0.61845 0.153707,0.44489 0.581704,1.15126 0.951105,1.56971 0.715834,0.81088 0.820878,0.81267 3.328366,0.0568 z m -2.704986,-0.89934 c -0.622264,-0.54065 -3.250752,-7.81796 -3.250752,-9.00013 0,-0.3712 0.179323,-0.82508 0.398494,-1.00861 0.304451,-0.25495 4.345867,-1.79006 4.712601,-1.79006 0.107207,0 1.998273,5.67411 2.002787,6.00933 0.002,0.16122 0.08259,0.35909 0.178713,0.4397 0.233401,0.19576 1.511102,4.11563 1.380352,4.2348 -0.167113,0.15231 -4.328344,1.62796 -4.590742,1.62796 -0.132563,0 -0.506717,-0.23085 -0.831453,-0.51299 z m 0.487566,-4.98334 c -0.491549,-1.41073 -1.006839,-2.76283 -1.145091,-3.00467 -0.542382,-0.94876 -0.26499,0.52733 0.468699,2.4941 0.405757,1.08769 0.675087,2.04084 0.598514,2.1181 -0.162632,0.1641 0.453947,0.9299 0.761879,0.94627 0.115346,0.006 -0.192455,-1.14308 -0.684001,-2.5538 z m 2.295998,1.61225 c -0.07086,-0.20153 -0.499686,-1.45469 -0.952935,-2.7848 -0.453252,-1.33012 -0.946187,-2.41839 -1.095415,-2.41839 -0.149227,0 -0.210972,0.16489 -0.137208,0.36642 0.07376,0.20153 0.512641,1.45435 0.975285,2.78405 0.462645,1.32969 0.953209,2.41797 1.090147,2.41839 0.136936,2.9e-4 0.190994,-0.16413 0.120126,-0.36567 z m 4.209981,2.34511 c -0.560487,-0.60965 -3.677352,-8.93512 -4.051198,-10.82117 -0.261076,-1.31712 0.380519,-2.45151 1.73513,-3.06785 0.662447,-0.30141 1.274052,-0.55941 1.35912,-0.57334 0.08507,-0.0139 0.373254,-0.12302 0.640405,-0.24243 0.267151,-0.11941 0.659358,-0.25299 0.871571,-0.29683 0.212214,-0.0438 0.581946,-0.16139 0.821628,-0.26121 1.71145,-0.7128 4.366044,-1.55991 4.491527,-1.43329 0.0835,0.0842 8.2e-5,0.33764 -0.185368,0.5631 -0.260051,0.31617 -0.251347,0.38939 0.03805,0.32011 0.41576,-0.0995 1.46781,2.6057 1.247573,3.20798 -0.0737,0.20153 0.01072,0.36642 0.187614,0.36642 0.176886,0 0.29732,0.0989 0.267637,0.21986 -0.02969,0.12092 0.145375,0.68154 0.389023,1.24583 0.63412,1.46863 2.940801,8.52242 2.818229,8.61809 -0.05653,0.0441 -1.846186,0.69539 -3.977015,1.44726 -4.39268,1.54996 -5.746989,1.69396 -6.653923,0.70747 z m 1.091879,-13.33755 c 3.916825,-1.35453 4.264855,-1.52441 3.763579,-1.837 -0.227131,-0.14164 -0.481784,-0.15226 -0.565897,-0.0236 -0.168498,0.25773 -5.745768,2.17763 -6.32656,2.17783 -0.199735,7e-5 -0.302386,0.0614 -0.228114,0.13638 0.07427,0.0749 0.0029,0.38546 -0.158698,0.69005 -0.161555,0.30458 -0.20746,0.69464 -0.102012,0.8668 0.113598,0.18546 0.328594,0.0337 0.5276,-0.37248 0.25053,-0.51132 1.035694,-0.92751 3.090102,-1.63797 z m -15.117117,12.58699 c -0.763648,-0.62393 -0.854318,-1.86952 -0.185227,-2.54463 0.406118,-0.40977 3.695472,-1.73906 3.816557,-1.54235 0.02507,0.0407 0.31312,0.82634 0.640122,1.7458 l 0.594546,1.67176 -1.761034,0.60006 c -2.148046,0.73194 -2.290129,0.73511 -3.104964,0.0694 z m 26.029314,-1.19009 c -0.208817,-0.34091 -4.32558,-12.05419 -4.973251,-14.15021 -0.281067,-0.90961 -0.430353,-1.86597 -0.331743,-2.12525 0.21246,-0.55865 1.22565,-0.62683 1.560368,-0.10501 0.129272,0.20154 1.437013,3.85749 2.906093,8.12435 2.732164,7.93542 2.835207,8.51123 1.523115,8.51123 -0.290579,0 -0.598642,-0.1148 -0.684582,-0.25511 z m 33.735182,1.83923 c 0.10742,-0.32516 -7.15573,-4.22237 -7.86914,-4.22237 -1.01748,0 -0.36681,0.64185 1.6934,1.67044 1.18905,0.59366 2.09741,1.18467 2.01858,1.31337 -0.0788,0.1287 0.0495,0.15935 0.28508,0.0681 0.23563,-0.0912 0.69999,0.10815 1.03192,0.44306 0.33194,0.33492 0.60351,0.53878 0.60351,0.45301 0,-0.0858 0.35953,0.0406 0.79894,0.28071 0.8461,0.4624 1.28349,0.46048 1.43771,-0.006 z m 53.99667,-6.12992 c 5.04263,-1.0239 11.6792,-3.46072 14.1495,-5.19543 1.61074,-1.1311 0.45467,-0.99543 -1.88548,0.22127 -5.42797,2.82213 -12.4561,4.7827 -18.09145,5.0468 -4.18754,0.19625 -6.21696,-0.22017 -7.71119,-1.58226 -2.25231,-2.05313 -2.24517,-4.07543 0.0315,-8.93564 1.37079,-2.92631 1.54922,-3.52507 1.56305,-5.24483 0.0134,-1.66391 -0.11018,-2.14765 -0.86443,-3.3844 -1.02013,-1.6727 -3.03006,-3.14799 -5.15721,-3.78537 -2.73164,-0.81851 -8.0198,-0.56932 -13.02895,0.61394 l -1.9253,0.45479 -0.74884,-0.75558 c -0.94388,-0.95237 -1.92003,-0.96506 -4.39889,-0.0572 l -1.90691,0.6984 -0.79365,-1.65109 c -1.21144,-2.52028 -1.82301,-2.70071 -5.27046,-1.55493 -2.75735,0.91643 -2.76241,0.91693 -3.37366,0.33753 -0.88038,-0.83452 -2.28621,-0.75819 -2.94919,0.16012 -0.42469,0.58826 -1.83679,1.18486 -6.87226,2.90343 -3.48575,1.18967 -6.40436,2.23027 -6.48581,2.31245 -0.0814,0.0822 -0.007,0.41586 0.16598,0.74152 0.63397,1.19523 0.3918,1.43559 -2.38786,2.36997 -3.97688,1.33681 -4.77547,2.13377 -3.39828,3.39132 0.5105,0.46616 0.72497,0.48803 1.74912,0.17843 0.642,-0.19408 1.31552,-0.26042 1.49671,-0.14744 0.21609,0.13476 0.24838,0.0731 0.0939,-0.17917 -0.17551,-0.28653 -0.0757,-0.34242 0.3913,-0.2192 0.34478,0.091 0.56223,0.0599 0.48322,-0.0691 -0.19067,-0.31129 1.24189,-0.66413 1.65372,-0.40732 0.20951,0.13066 0.23895,0.0652 0.0842,-0.18741 -0.17267,-0.2819 -0.10539,-0.33697 0.24564,-0.20106 0.26589,0.10295 0.48344,0.0484 0.48344,-0.12118 0,-0.1696 0.14103,-0.26094 0.31339,-0.20297 0.17237,0.058 0.7482,1.45753 1.27964,3.11013 l 0.96624,3.00473 -0.91648,0.38498 c -0.50406,0.21174 -1.83163,0.683 -2.95014,1.04725 -1.11852,0.36425 -2.25034,0.91256 -2.51517,1.21846 -0.63315,0.73135 -0.36316,1.69247 0.59445,2.11614 0.41724,0.1846 0.869,0.47024 1.00392,0.63475 0.14527,0.17713 0.18143,0.0973 0.0887,-0.19571 -0.12151,-0.38386 0.16971,-0.60417 1.29878,-0.98256 0.80047,-0.26827 1.52786,-0.41465 1.61643,-0.32528 0.0886,0.0894 0.36106,-0.0394 0.60554,-0.28604 0.24448,-0.24668 0.68667,-0.38461 0.98265,-0.30651 0.29597,0.0781 0.46487,0.0224 0.37532,-0.12381 -0.0895,-0.14619 0.0918,-0.2658 0.40306,-0.2658 0.41668,0 0.61615,0.27048 0.75662,1.02598 0.21221,1.14138 0.8605,1.3264 2.39707,0.68412 0.44982,-0.18802 0.91591,-0.3694 1.03575,-0.40306 0.11984,-0.0337 0.25058,-0.0878 0.29052,-0.12028 0.0399,-0.0325 0.26874,-0.10627 0.50842,-0.16397 0.23968,-0.0577 1.08946,-0.36432 1.8884,-0.68137 0.79895,-0.31706 1.5493,-0.59315 1.66747,-0.61354 0.11816,-0.0204 0.37963,-0.0984 0.58104,-0.17342 3.3255,-1.23832 4.70864,-1.56329 5.99793,-1.40922 1.24223,0.14845 1.45812,0.0888 1.88051,-0.51968 0.26245,-0.37807 0.47717,-0.98782 0.47717,-1.35501 0,-0.38009 0.177,-0.66762 0.41097,-0.66762 0.22603,0 1.474,-0.40958 2.77327,-0.91019 3.28673,-1.26638 3.558,-1.78789 2.74963,-5.28616 -0.16675,-0.72166 -0.075,-0.80729 1.37421,-1.28208 2.40221,-0.78704 3.73183,-1.62063 3.73183,-2.33964 0,-1.04159 0.63909,-1.53353 2.61472,-2.01263 8.9394,-2.16786 14.90553,-1.00284 17.28538,3.37536 0.91505,1.68341 0.55147,4.19086 -1.1074,7.63722 -1.60539,3.33525 -1.75088,3.81817 -1.68871,5.6055 0.18781,5.39954 5.61191,7.11702 15.88742,5.03058 z m -67.95111,-4.44377 c -0.53691,-0.54173 0.007,-0.99221 2.02413,-1.67653 1.2198,-0.41381 2.35126,-0.66917 2.51434,-0.56747 0.16309,0.1017 0.21243,0.0476 0.10965,-0.12019 -0.33267,-0.54311 1.08077,-0.70061 1.47709,-0.16459 0.48524,0.65628 0.4598,1.06553 -0.0539,0.86665 -0.22936,-0.0888 -0.46054,-0.0297 -0.51374,0.13131 -0.0532,0.16102 -0.57138,0.3185 -1.15151,0.34995 -0.58013,0.0315 -1.00253,0.14368 -0.93866,0.2494 0.11714,0.1939 -2.31545,1.1269 -2.93815,1.1269 -0.18458,0 -0.42277,-0.0879 -0.52929,-0.19543 z m 8.07862,-0.21549 c -0.0554,-0.17706 -0.43593,-1.28615 -0.84553,-2.46464 -0.4096,-1.1785 -0.74473,-2.32182 -0.74473,-2.54072 0,-0.24705 1.23961,-0.81149 3.2684,-1.48823 1.79761,-0.59962 3.3144,-1.12963 3.37062,-1.17779 0.17206,-0.1474 -0.86093,-3.05694 -1.08533,-3.05694 -0.11555,0 -1.56882,0.4617 -3.22949,1.02599 -1.66068,0.56429 -3.16681,1.02598 -3.34696,1.02598 -0.32251,0 -1.775,-4.19897 -1.69738,-4.90691 0.0219,-0.19979 -0.0931,-0.28036 -0.25559,-0.17904 -0.16247,0.10132 -0.24198,0.0225 -0.17668,-0.17518 0.10992,-0.33272 3.15241,-1.59578 3.15241,-1.30869 0,0.0708 0.49026,-0.0847 1.08947,-0.34552 1.34876,-0.58704 7.70847,-2.77895 7.78235,-2.68223 0.17625,0.23072 4.75593,14.4126 4.67919,14.49003 -0.0515,0.052 -2.74111,0.99708 -5.97683,2.10018 -3.6467,1.24321 -5.92143,1.88326 -5.98392,1.68371 z m 4.80127,-6.62439 c 0,-0.16122 -0.13845,-0.29313 -0.30767,-0.29313 -0.16922,0 -0.22687,0.13191 -0.12812,0.29313 0.0988,0.16123 0.23721,0.29314 0.30767,0.29314 0.0705,0 0.12812,-0.13191 0.12812,-0.29314 z m -3.93627,-7.78149 c 1.59007,-0.56806 2.9519,-1.09425 3.02629,-1.16931 0.27966,-0.28218 -0.50569,-0.11772 -2.12913,0.44585 -0.92259,0.32028 -1.79284,0.51036 -1.93388,0.42241 -0.14104,-0.088 -0.25644,-0.006 -0.25644,0.18188 0,0.18799 -0.1961,0.26588 -0.43579,0.17307 -0.23968,-0.0928 -0.43578,-0.0409 -0.43578,0.11521 0,0.15616 -0.18839,0.28394 -0.41864,0.28394 -0.23025,0 -0.49944,0.13191 -0.59819,0.29314 -0.27408,0.44744 0.0594,0.36923 3.18156,-0.74619 z m 4.80784,-1.59892 c 0.35429,-0.23102 0.31674,-0.285 -0.20075,-0.28865 -0.35009,-0.002 -0.71733,0.12743 -0.81608,0.28865 -0.22861,0.37322 0.44446,0.37322 1.01683,0 z m 7.76022,12.52029 c -0.59152,-0.4619 -5.49623,-15.09163 -5.28485,-15.76363 0.21601,-0.68669 0.84979,-0.89905 1.41472,-0.47403 0.43854,0.32993 5.40667,14.63022 5.40667,15.56257 0,0.67366 -0.98445,1.10619 -1.53654,0.67509 z m -15.75419,-3.45398 c -0.10779,-0.4952 -0.15086,-0.93891 -0.0957,-0.98602 0.18552,-0.15845 5.61844,-1.92439 5.92041,-1.92439 0.1643,0 0.44443,0.38944 0.62249,0.86542 l 0.32375,0.86542 -3.09321,1.03997 c -1.70126,0.57199 -3.18063,1.03998 -3.28747,1.03998 -0.10685,0 -0.28246,-0.40517 -0.39026,-0.90038 z m 15.71387,-5.03566 c -1.10191,-3.26482 -2.05641,-6.08712 -2.12112,-6.27177 -0.0704,-0.20095 0.99177,-0.70865 2.64592,-1.26469 2.9053,-0.97661 3.6385,-0.94086 4.09958,0.19987 0.69336,1.71538 3.34401,9.89998 3.34401,10.32551 0,0.80503 -0.84161,1.36702 -3.27451,2.18658 -1.24172,0.4183 -2.35504,0.76054 -2.47404,0.76054 -0.119,0 -1.11792,-2.67122 -2.21984,-5.93604 z m 2.03103,-1.16496 c -0.44499,-1.33429 -0.92134,-2.62385 -1.05857,-2.86569 -0.42567,-0.75017 -0.32602,0.34426 0.15716,1.72605 0.23338,0.66742 0.42798,1.27824 0.43246,1.35738 0.004,0.0791 0.20487,0.61896 0.44532,1.19961 0.24045,0.58065 0.3535,1.2066 0.25122,1.39101 -0.1182,0.21311 -0.0461,0.20453 0.19777,-0.0235 0.31603,-0.29553 0.24099,-0.78677 -0.42536,-2.78481 z m 1.51792,-0.59387 c -0.94918,-2.88545 -1.01769,-3.03937 -1.24902,-2.80597 -0.20321,0.20505 1.64661,5.5175 1.92122,5.5175 0.12087,0 -0.18163,-1.22019 -0.6722,-2.71153 z m -27.93345,5.14637 c -0.68948,-0.69568 0.46144,-1.9111 1.30913,-1.38249 0.19807,0.12352 0.26011,0.0836 0.14987,-0.0964 -0.22314,-0.3643 1.14185,-0.7714 1.60923,-0.47994 0.17713,0.11045 0.24139,0.0691 0.14281,-0.0918 -0.19541,-0.31903 1.77636,-1.04019 2.17107,-0.79405 0.13342,0.0832 0.24459,-0.0214 0.24703,-0.23244 0.003,-0.27883 0.0814,-0.26353 0.28608,0.056 0.43791,0.68372 0.35099,1.25869 -0.16035,1.0607 -0.24798,-0.096 -0.38614,-0.0689 -0.30702,0.0603 0.0791,0.12918 -0.99265,0.60978 -2.38173,1.068 -1.38907,0.45822 -2.60541,0.87508 -2.70296,0.92636 -0.0976,0.0513 -0.26098,0.009 -0.36316,-0.0942 z m 31.69477,-5.91856 c -0.27719,-0.78746 -0.50398,-1.5557 -0.50398,-1.70721 0,-0.15151 0.97228,-0.58314 2.16063,-0.95918 2.0499,-0.64866 2.19877,-0.65847 2.90523,-0.19141 0.82669,0.54653 1.02601,1.93017 0.35856,2.48908 -0.30226,0.25312 -4.03731,1.80047 -4.34603,1.80047 -0.0387,0 -0.29722,-0.64429 -0.57441,-1.43175 z m -30.28267,7.00137 c 0.0988,-0.16123 0.0411,-0.29314 -0.12812,-0.29314 -0.16921,0 -0.30767,0.13191 -0.30767,0.29314 0,0.16123 0.0577,0.29314 0.12812,0.29314 0.0705,0 0.20891,-0.13191 0.30767,-0.29314 z m 3.49397,-1.40908 c -0.0894,-0.0903 -0.32387,-1.8e-4 -0.52094,0.20015 -0.28479,0.28951 -0.25142,0.32318 0.16263,0.1641 0.28652,-0.11008 0.44776,-0.27399 0.35831,-0.36425 z m -25.719044,-5.16089 c 0,-0.24223 -0.813859,-0.72316 -1.961036,-1.15881 -6.396457,-2.42914 -6.915002,-2.57663 -6.69264,-1.90354 0.08815,0.26682 7.598723,3.33618 8.435783,3.44746 0.119841,0.0159 0.217893,-0.15737 0.217893,-0.38511 z M 116.53445,96.784392 c 0.10398,-0.330548 0.0114,-0.516527 -0.25718,-0.516527 -0.35018,0 -1.95334,1.676212 -5.51642,5.767775 -0.31172,0.35795 -0.46047,0.79297 -0.33897,0.99133 0.2361,0.38544 5.82221,-5.319479 6.11257,-6.242578 z m -20.109981,5.414638 c 0.187371,-0.3059 -5.862135,-7.836561 -6.295239,-7.836561 -0.583964,0 -0.38533,0.679192 0.526662,1.800831 1.11214,1.367793 4.121397,5.0762 4.663898,5.74747 0.439993,0.54443 0.877792,0.65867 1.104679,0.28826 z m 8.001501,-6.957147 c 0.40522,-5.90001 0.40377,-6.009325 -0.0795,-6.009325 -0.41484,0 -0.59426,1.137236 -0.87872,5.569618 -0.1864,2.904389 -0.17812,5.032751 0.0208,5.357564 0.40462,0.66058 0.63852,-0.56656 0.93737,-4.917857 z"
         id="path43" />
      <path
         style="fill:#171717;stroke-width:0.291828"
         d="m 104.85009,140.97482 c 0.1086,-2.54131 0.26944,-4.73809 0.35743,-4.88174 0.49204,-0.8033 0.67718,0.42516 0.52765,3.50116 -0.0917,1.88601 -0.18827,3.94596 -0.21463,4.57766 -0.029,0.69388 -0.21023,1.20297 -0.45792,1.28601 -0.34688,0.11631 -0.37959,-0.57378 -0.21253,-4.48309 z m 12.49467,2.5538 c -0.30881,-0.1986 -4.17327,-8.73982 -4.17327,-9.22373 0,-0.12224 0.16872,-0.22225 0.37494,-0.22225 0.20622,0 1.25799,1.99809 2.33726,4.44019 1.84563,4.17614 2.23261,5.50198 1.46107,5.00579 z m -24.344172,-0.9115 c -0.21638,-0.35326 4.161588,-7.40052 4.712537,-7.58582 0.72642,-0.24432 0.289246,0.75892 -1.694291,3.88812 -2.310362,3.64479 -2.733286,4.16292 -3.018246,3.6977 z m -18.103833,-7.7189 c -0.358541,-0.17451 -0.87396,-0.82514 -1.145373,-1.44585 -0.271413,-0.6207 -0.643958,-1.12855 -0.827874,-1.12855 -0.183916,0 -1.041223,0.2428 -1.905124,0.53955 -1.598994,0.54927 -2.75145,0.46784 -3.615183,-0.25545 -0.31797,-0.26626 -1.076347,-0.16531 -3.395082,0.45194 -6.735069,1.79287 -11.845278,1.02415 -15.113529,-2.2735 -1.68136,-1.69649 -2.38677,-3.4562 -2.380875,-5.93932 0.0045,-1.8937 0.114661,-2.25917 1.413799,-4.69021 0.774909,-1.45006 1.608471,-3.02332 1.85236,-3.49613 0.59454,-1.15261 0.780187,-3.38847 0.382338,-4.6048 -0.492371,-1.50533 -2.452556,-3.35621 -4.340307,-4.09829 -2.269898,-0.8923 -6.215535,-0.88419 -9.639232,0.0198 -5.559753,1.46802 -13.735879,4.89352 -18.132476,7.59685 -1.175019,0.72249 -2.115807,1.12654 -2.267239,0.97374 -0.478985,-0.48329 6.151829,-4.10334 11.312069,-6.17575 10.590248,-4.25316 16.486326,-4.85054 20.776861,-2.10508 1.987235,1.27161 2.931382,2.87435 3.079939,5.22836 0.118813,1.88272 0.08648,1.98463 -1.852583,5.83883 -1.768509,3.51519 -1.973506,4.10046 -1.973506,5.63441 0,1.15445 0.200828,2.12132 0.616846,2.96973 0.339268,0.69189 0.5362,1.401 0.437628,1.57581 -0.09857,0.1748 -0.07289,0.22069 0.05707,0.10198 0.12996,-0.11872 0.814318,0.32175 1.520793,0.97882 1.646489,1.53133 3.22236,2.22344 6.017795,2.64295 2.480533,0.37225 4.61217,0.13679 8.660245,-0.95661 1.996387,-0.53923 2.25156,-0.686 2.25156,-1.29509 0,-1.66826 0.587811,-2.24746 3.272934,-3.225 l 1.384529,-0.50405 -0.18955,-1.44173 c -0.292354,-2.2237 0.09595,-2.67956 3.236241,-3.79926 2.391874,-0.85284 2.718501,-1.05644 3.012973,-1.87812 0.181653,-0.50687 0.571626,-1.14196 0.866607,-1.41132 0.29498,-0.26935 2.538632,-1.19264 4.985892,-2.05175 3.420543,-1.20077 4.501231,-1.70293 4.672965,-2.17135 0.455132,-1.2414 2.150199,-1.61313 3.005821,-0.65917 0.283533,0.31612 1.738712,4.14141 3.23373,8.50065 2.209077,6.44132 2.667047,8.06169 2.445029,8.65089 -0.329303,0.87393 -1.531598,1.24484 -2.651957,0.81815 -0.680317,-0.2591 -1.416615,-0.0844 -4.815041,1.14222 -4.317442,1.55838 -5.593551,1.74595 -6.974861,1.02522 -0.839727,-0.43814 -1.00914,-0.41741 -3.31646,0.40586 -2.642712,0.94294 -2.981719,0.98665 -3.959773,0.51061 z m 3.483514,-1.27936 c 1.238904,-0.4163 2.252551,-0.86906 2.252551,-1.00613 0,-0.34986 -3.407171,-10.27348 -3.590959,-10.45893 -0.0828,-0.0835 -0.741873,0.076 -1.464603,0.35446 -0.722731,0.27849 -1.543786,0.41741 -1.824569,0.30869 -0.280785,-0.10872 -0.416919,-0.10323 -0.302522,0.0122 0.114397,0.11543 -0.183745,0.45024 -0.662534,0.74403 -0.625538,0.38384 -0.870528,0.75963 -0.870528,1.33532 0,1.02477 2.531944,8.27618 3.126536,8.9543 0.578993,0.66032 0.66414,0.6541 3.336628,-0.24393 z m -3.220846,-4.8127 c -0.482313,-1.45103 -0.788147,-2.63766 -0.679637,-2.63696 0.108514,5.9e-4 0.614333,1.18792 1.124043,2.63824 0.509712,1.45033 0.81555,2.63696 0.679637,2.63696 -0.135913,0 -0.641733,-1.18721 -1.124043,-2.63824 z m 1.589874,-0.36642 c -0.444138,-1.33011 -0.874186,-2.58328 -0.955663,-2.78481 -0.08148,-0.20153 -0.03224,-0.36642 0.109408,-0.36642 0.141654,0 0.574337,0.95636 0.961518,2.12525 1.05031,3.17084 1.121605,3.44437 0.897777,3.44437 -0.113032,0 -0.568901,-1.08828 -1.01304,-2.41839 z m 11.945559,3.72267 c 2.276981,-0.76336 4.137373,-1.53399 4.134204,-1.71252 -0.0032,-0.17854 -1.096109,-3.4905 -2.428762,-7.35991 -1.773323,-5.14894 -2.341547,-7.13956 -2.119209,-7.42409 0.360868,-0.46182 0.350302,-0.48809 3.545065,8.81649 2.221345,6.46956 2.313127,6.66889 3.070761,6.66889 0.42954,0 0.8519,-0.18649 0.938584,-0.41441 0.127116,-0.33424 -2.483636,-8.42826 -4.865868,-15.08547 -0.548482,-1.53275 -0.554389,-1.5962 -0.123588,-1.32756 0.192079,0.11978 0.257116,0.0813 0.152196,-0.09 -0.330985,-0.54036 -1.778261,-0.0143 -2.666538,0.96931 -0.703596,0.77908 -1.655457,1.23483 -4.938905,2.36475 -4.056552,1.39595 -5.374691,2.20716 -5.374691,3.30768 0,0.26666 -0.16342,0.66249 -0.363155,0.87961 -0.199735,0.21713 -0.224275,0.31698 -0.05453,0.22191 0.397817,-0.22283 1.439903,2.82828 1.135637,3.32502 -0.137191,0.22398 -0.109051,0.29672 0.07129,0.18426 0.176929,-0.11033 0.791184,1.22552 1.512159,3.28858 1.199585,3.43259 1.911694,4.54121 3.073298,4.78457 0.737146,0.15443 0.441378,0.23237 5.30206,-1.39716 z m -9.039115,-10.61979 c -0.172408,-0.28147 0.226385,-1.53059 0.488653,-1.53059 0.0397,0 1.550709,-0.52765 3.357796,-1.17255 1.807087,-0.64491 3.430351,-1.17255 3.607251,-1.17255 0.780841,0 -0.451741,0.5743 -3.494452,1.6282 -2.737647,0.94823 -3.303065,1.24854 -3.505725,1.86199 -0.156787,0.47459 -0.316038,0.60996 -0.453523,0.3855 z m -8.217768,10.45413 1.606239,-0.6202 -0.517597,-1.35848 c -0.284679,-0.74716 -0.610678,-1.6186 -0.724445,-1.93654 -0.120027,-0.33543 -0.291744,-0.45331 -0.409109,-0.28084 -0.111248,0.16347 -0.790577,0.48678 -1.509623,0.71847 -1.385758,0.44653 -2.614715,1.45214 -2.614715,2.13954 0,0.73451 1.177119,1.95825 1.883641,1.95825 0.373654,0 1.402178,-0.27909 2.285609,-0.6202 z m 18.23655,-12.76887 c -0.342481,-0.59425 -0.425185,-0.40404 -0.144835,0.33311 0.09963,0.26198 0.242352,0.41457 0.317153,0.3391 0.0748,-0.0755 -0.0026,-0.37797 -0.172318,-0.67221 z m 37.512927,13.76419 c -0.20073,-0.0726 -0.29199,-0.25119 -0.2028,-0.3968 0.0892,-0.1456 -0.0134,-0.19675 -0.22804,-0.11366 -0.50906,0.19711 -3.48845,-1.44657 -3.20109,-1.76598 0.12105,-0.13455 0.0619,-0.15299 -0.13152,-0.041 -0.40637,0.23538 -3.86099,-1.44023 -3.86099,-1.87272 0,-0.53657 0.92263,-0.29381 2.93154,0.77134 1.13092,0.59962 1.91874,1.19239 1.81337,1.36441 -0.1057,0.17257 -0.0459,0.21661 0.13822,0.10179 0.33264,-0.20743 3.07417,1.05074 3.38098,1.55165 0.2127,0.34725 -0.15355,0.57682 -0.63967,0.40094 z m 44.2642,-5.79931 c -2.61,-0.54376 -4.12661,-1.56485 -4.88137,-3.28648 -0.9289,-2.11881 -0.65194,-3.96997 1.19253,-7.97068 1.26579,-2.74555 1.54415,-3.63687 1.55631,-4.98334 0.0244,-2.70804 -1.4171,-4.70783 -4.43439,-6.15164 -1.5135,-0.72423 -1.828,-0.76295 -5.95574,-0.73332 -3.61492,0.0259 -4.79921,0.15089 -6.94673,0.73285 -1.47077,0.39856 -2.67387,0.89146 -2.78568,1.14126 -0.95298,2.12921 -1.00302,2.17439 -3.40204,3.07125 -1.30364,0.48736 -2.47692,1.0062 -2.6073,1.15297 -0.13152,0.14804 -0.10117,0.18905 0.0682,0.0921 0.41967,-0.24027 1.11082,2.2421 0.88123,3.1651 -0.29545,1.18774 -1.02733,1.69827 -3.72997,2.60186 -2.13505,0.71383 -2.54067,0.94911 -2.54067,1.47375 0,0.34337 -0.21472,0.93363 -0.47717,1.3117 -0.42166,0.60743 -0.63927,0.66801 -1.87076,0.52085 -1.20015,-0.14342 -2.23178,0.11609 -7.43182,1.86951 -3.32103,1.11982 -6.1906,2.03604 -6.37684,2.03604 -0.18623,0 -0.42444,-0.46169 -0.52936,-1.02598 -0.10491,-0.56429 -0.35525,-1.02598 -0.55629,-1.02598 -0.20105,0 -1.66866,0.4428 -3.26136,0.98399 -3.32788,1.1308 -4.19092,1.05823 -4.19092,-0.35238 0,-1.10316 0.24341,-1.27409 3.19576,-2.24414 3.81586,-1.25378 3.58074,-0.8402 2.45506,-4.3184 -0.76213,-2.35491 -1.08369,-2.99895 -1.4779,-2.96 -0.27711,0.0274 -1.77779,0.48489 -3.33485,1.01672 -2.77851,0.949 -2.84218,0.95676 -3.43243,0.41778 -0.78435,-0.71622 -0.76379,-1.51476 0.0523,-2.0302 0.35952,-0.22708 1.91975,-0.83171 3.46719,-1.34363 l 2.81351,-0.93076 -0.39754,-1.13688 -0.39754,-1.13688 5.28291,-1.78137 c 2.9056,-0.97975 5.76732,-1.95153 6.35937,-2.1595 0.59206,-0.20796 1.40291,-0.73353 1.80191,-1.16792 0.87598,-0.95371 2.05834,-1.03177 2.94193,-0.19421 l 0.62832,0.59559 2.65122,-0.89624 c 1.70332,-0.57579 2.91525,-0.82936 3.3897,-0.70921 0.94249,0.23868 1.80449,1.34511 2.19866,2.82213 0.24476,0.91716 0.41156,1.11684 0.79993,0.95762 3.28065,-1.34499 5.02892,-1.54932 6.03655,-0.70553 0.49068,0.41089 0.55286,0.98147 0.0744,0.68314 -0.20108,-0.12539 -0.25681,-0.0808 -0.13915,0.11125 0.22059,0.36013 0.21523,0.36093 3.81559,-0.56904 2.17055,-0.56065 3.37967,-0.67635 7.11783,-0.68108 4.0806,-0.005 4.63792,0.057 5.93975,0.66267 2.07148,0.9637 3.23486,1.9483 4.13666,3.50096 0.64859,1.11668 0.79127,1.71409 0.78526,3.28786 -0.006,1.69782 -0.18562,2.30803 -1.52834,5.20633 -0.83654,1.8057 -1.59512,3.74403 -1.68572,4.3074 -0.42759,2.65861 1.13956,5.10089 3.78776,5.90295 4.86243,1.47269 15.68888,-0.61889 23.34841,-4.51074 2.60012,-1.32113 2.6938,-1.35327 2.6938,-0.92436 0,0.44175 -4.77635,2.76672 -8.0351,3.91122 -3.3931,1.19169 -9.43343,2.45482 -12.73735,2.66359 -1.44797,0.0915 -3.07954,-0.0105 -4.32773,-0.27055 z m -54.08228,-5.73459 c 0.92962,-0.32967 1.87564,-0.52761 2.10228,-0.43985 0.22794,0.0883 0.33275,0.0301 0.23457,-0.13023 -0.0976,-0.15938 0.0794,-0.28979 0.39336,-0.28979 0.50459,0 0.53188,-0.0848 0.23504,-0.73055 -0.1847,-0.40181 -0.4062,-0.73159 -0.49221,-0.73285 -0.086,-0.001 -1.45874,0.43827 -3.0505,0.97672 -2.28388,0.77258 -2.89411,1.09429 -2.89411,1.52576 0,0.57376 1.31373,1.113 1.61699,0.66372 0.0904,-0.13393 0.92496,-0.51325 1.85458,-0.84293 z m 16.5892,-3.26859 c 0.11007,-0.11106 -4.42123,-14.22674 -4.66423,-14.52978 -0.0366,-0.0457 -2.00722,0.58435 -4.37907,1.40009 -2.37185,0.81574 -4.48784,1.41527 -4.70219,1.33227 -0.21434,-0.083 -0.31994,-0.037 -0.23465,0.10228 0.0853,0.13925 -0.46354,0.42255 -1.21963,0.62956 -0.75609,0.20701 -1.42093,0.41302 -1.47742,0.45779 -0.24678,0.19564 1.78412,5.68807 2.10325,5.68807 0.19511,0 1.71347,-0.46169 3.37415,-1.02598 1.66067,-0.56429 3.11431,-1.02599 3.23031,-1.02599 0.30057,0 0.88771,1.91466 0.78114,2.5473 -0.0494,0.29314 -0.53315,0.69518 -1.08085,0.89824 -1.3469,0.49936 -1.48085,0.2401 -0.19422,-0.37594 1.00303,-0.48025 1.36618,-1.15235 0.73699,-1.36397 -0.16688,-0.0561 -0.32435,-0.38227 -0.34992,-0.72476 -0.0413,-0.55272 -0.11328,-0.58031 -0.64077,-0.24545 -0.32685,0.20748 -1.72925,0.74475 -3.11644,1.19391 -1.76126,0.57029 -2.56379,0.97728 -2.66015,1.34907 -0.0759,0.29281 -0.0195,0.5324 0.12534,0.5324 0.14483,0 0.26333,0.20384 0.26333,0.45298 0,0.36265 0.2119,0.41289 1.06243,0.25189 0.58434,-0.11061 1.40144,-0.3796 1.81578,-0.59776 0.88742,-0.46724 1.47964,-0.51349 1.47964,-0.11555 0,0.15658 -0.9233,0.56767 -2.05178,0.91351 -1.66829,0.51129 -2.01445,0.71833 -1.8521,1.10771 0.10981,0.26339 0.43326,1.2044 0.71877,2.09114 0.2855,0.88675 0.65658,1.97086 0.8246,2.40915 l 0.30551,0.79689 5.83222,-2.00504 c 3.20772,-1.10277 5.8942,-2.06759 5.96996,-2.14403 z m -14.25029,-9.82206 c 0.38847,-0.39903 5.66521,-2.14962 5.66521,-1.87947 0,0.11656 -1.14394,0.58678 -2.54208,1.04493 -1.39815,0.45814 -2.73819,0.90049 -2.97787,0.98298 -0.2931,0.10087 -0.34067,0.0523 -0.14526,-0.14844 z m 6.97257,-2.42611 c 0.0987,-0.16122 0.46599,-0.28386 0.81608,-0.27253 0.6137,0.0199 0.61569,0.0296 0.0555,0.27253 -0.79966,0.34672 -1.08395,0.34672 -0.87157,0 z m 10.31359,11.7728 c 0,-0.2851 -0.4595,-1.89511 -1.02112,-3.57779 -0.56162,-1.68268 -0.95532,-3.23244 -0.8749,-3.44391 0.0804,-0.21146 0.0445,-0.32107 -0.0797,-0.24357 -0.12429,0.0775 -0.8018,-1.59752 -1.50558,-3.72228 -0.70379,-2.12475 -1.43185,-4.03765 -1.61792,-4.25087 -0.18606,-0.21322 -0.65689,-0.42296 -1.04629,-0.46608 -0.90031,-0.0997 -1.00964,0.72522 -0.3559,2.68541 3.53171,10.58961 4.56791,13.46691 4.95773,13.76658 0.5866,0.45092 1.54372,-0.0125 1.54372,-0.74749 z m 3.19395,-2.53833 c 2.28134,-0.78292 3.19758,-1.4101 3.19758,-2.1888 0,-0.26678 -0.52715,-2.09883 -1.17144,-4.07123 -0.6443,-1.9724 -1.09416,-3.71236 -0.99969,-3.86658 0.0945,-0.15423 0.0434,-0.28041 -0.11339,-0.28041 -0.3724,0 -1.00808,-1.94985 -0.76504,-2.34663 0.10313,-0.16838 0.0144,-0.26989 -0.19724,-0.22559 -0.21161,0.0443 -0.36302,-0.0514 -0.33645,-0.21259 0.0913,-0.55386 -1.50416,-0.41055 -3.82511,0.34359 -1.2783,0.41536 -2.42439,0.84651 -2.54686,0.95813 -0.31356,0.28576 3.87662,12.62233 4.28724,12.62233 0.18523,0 1.29691,-0.3295 2.4704,-0.73222 z m -3.31718,-6.58398 c -0.44267,-1.28307 -0.74898,-2.50197 -0.6807,-2.70867 0.0683,-0.20669 0.52931,0.84309 1.02449,2.33286 0.49519,1.48977 0.8015,2.70867 0.6807,2.70867 -0.1208,0 -0.58182,-1.04979 -1.02449,-2.33286 z m 2.03571,0.79388 c -0.92758,-2.60451 -1.31337,-4.03064 -1.09035,-4.03064 0.11731,0 0.6224,1.25316 1.12241,2.78481 0.94873,2.90614 0.92248,3.92605 -0.0321,1.24583 z m -25.32971,3.494 c 0.62262,-0.27242 1.2763,-0.47042 1.45262,-0.44 0.17632,0.0304 0.79948,-0.18506 1.38479,-0.47886 0.94268,-0.47317 1.03067,-0.60845 0.77048,-1.18464 l -0.29373,-0.65047 -2.63408,0.85469 c -3.55105,1.15223 -3.78426,1.29059 -3.39918,2.0166 0.35193,0.6635 0.99827,0.63562 2.7191,-0.11732 z m 31.62338,-4.63104 c 0.99931,-0.34322 2.04571,-0.82536 2.32534,-1.07141 0.77143,-0.6788 0.65041,-2.00794 -0.2362,-2.59409 -0.70646,-0.46706 -0.85533,-0.45725 -2.90523,0.19141 -1.18835,0.37604 -2.16128,0.82537 -2.16207,0.99852 -0.002,0.36619 0.94589,3.09962 1.07451,3.09962 0.0477,0 0.90433,-0.28082 1.90365,-0.62405 z m -59.763982,-1.70818 c -2.071664,-0.77943 -3.814807,-1.56287 -3.87365,-1.74099 -0.174672,-0.52873 0.415248,-0.38967 4.117368,0.97051 4.651768,1.70909 4.53978,1.6607 4.53978,1.96152 0,0.48231 -0.99308,0.23504 -4.783498,-1.19104 z m 25.050402,-3.5843 c -0.11052,-0.29059 0.64225,-1.35976 2.15072,-3.054738 3.30238,-3.710658 3.3943,-3.796873 3.70567,-3.475688 0.34465,0.355512 -0.70895,1.721997 -1.1268,1.461427 -0.16242,-0.101288 -0.23556,-0.0124 -0.16254,0.19749 0.20071,0.576898 -4.35305,5.434219 -4.56705,4.871509 z M 95.246671,101.7642 c -0.327069,-0.36276 -1.739366,-2.10495 -3.138436,-3.871533 -2.203838,-2.782755 -2.546427,-3.458654 -1.733175,-3.419424 0.304751,0.01472 5.942703,7.207817 5.944396,7.584097 0.0026,0.55421 -0.410562,0.44134 -1.072785,-0.29314 z m 8.156969,-1.819235 c -0.0971,-0.255191 -0.0304,-2.539033 0.14821,-5.075206 0.17857,-2.53617 0.32427,-4.842065 0.32378,-5.12421 -5.8e-4,-0.282145 0.21056,-0.512991 0.46902,-0.512991 0.40564,0 0.44615,0.290704 0.29618,2.125249 -0.0955,1.168887 -0.25865,3.612076 -0.36244,5.429308 -0.17835,3.122947 -0.47742,4.202585 -0.87475,3.15785 z"
         id="path41" />
    </g>
  </g>
</svg>
